<svg width="66" height="66" viewBox="0 0 66 66" fill="none" xmlns="http://www.w3.org/2000/svg">
<g id="Vector">
<path d="M30.5405 3.00176L31.9355 6.6406C33.2164 9.98056 34.4956 13.3213 35.773 16.6628C35.82 16.7859 35.8969 16.8952 35.9968 16.9809C36.0966 17.0665 36.2162 17.1258 36.3447 17.1533C37.2845 17.3545 38.2041 17.6407 39.0923 18.0085C39.2345 18.0674 39.3906 18.0833 39.5416 18.0542C39.6926 18.0251 39.8319 17.9523 39.9422 17.8448C40.0524 17.7373 40.129 17.5997 40.1623 17.4491C40.1957 17.2985 40.1844 17.1413 40.1298 16.9971C38.8538 13.6233 37.5694 10.2527 36.2766 6.88527L35.2473 4.19382C35.132 3.89175 35.0233 3.58579 34.9146 3.27914C34.6417 2.44384 34.304 1.63125 33.9047 0.848828C33.7848 0.63559 33.6157 0.454298 33.4116 0.320142C33.1047 0.110876 32.742 -0.000688999 32.371 3.20161e-06C31.989 0.00179931 31.6154 0.113193 31.2945 0.321044C30.9735 0.528895 30.7184 0.824533 30.5594 1.17308C30.4591 1.39192 30.3785 1.59041 30.3124 1.77975C30.2633 1.96196 30.2524 2.15244 30.2806 2.33908C30.3088 2.52571 30.3753 2.70443 30.476 2.86387C30.4988 2.91098 30.5234 2.9574 30.5403 3.00108M31.0562 2.04066C31.1197 1.85772 31.1945 1.67959 31.2754 1.50305C31.3724 1.29269 31.5268 1.11416 31.7207 0.988083C31.9145 0.862004 32.14 0.793513 32.371 0.790517C32.5838 0.789611 32.7919 0.853387 32.968 0.973454C33.0685 1.03723 33.1524 1.12427 33.2125 1.22728C33.7644 2.24555 34.0943 3.38478 34.5113 4.47646C36.1416 8.74208 37.7688 13.009 39.3929 17.2772C38.4605 16.8908 37.4951 16.5903 36.5086 16.3794C34.7695 11.8237 33.0252 7.26982 31.2758 2.71775C31.1892 2.4916 30.9942 2.21879 31.0562 2.04066Z" fill="#FEFEFE"/>
<path d="M3.65762 27.5695C3.70319 27.5695 3.7496 27.5685 3.79685 27.5667L5.57421 27.4981C7.88159 27.4108 10.2671 27.3207 12.6153 27.1725C13.4153 27.0911 14.1854 26.8238 14.8646 26.3918C15.5903 25.9528 16.3035 25.4806 16.9935 25.0239C17.7555 24.5197 18.543 23.9981 19.3342 23.5316C19.472 23.4502 19.5552 23.401 21.0122 21.7384C21.7915 20.8495 22.2679 19.7343 22.3721 18.555C22.5088 17.073 22.6651 15.5654 22.8167 14.1072C22.8882 13.4195 22.9592 12.7318 23.0295 12.0441C23.0295 12.0356 23.0311 12.0274 23.0322 12.0196C23.2222 12.0569 23.4082 12.1119 23.588 12.1838C24.3816 12.4815 25.2199 12.6415 26.067 12.6569C26.8485 12.6704 26.9374 12.8831 27.0381 13.2894C27.2797 14.2649 27.5319 15.2382 27.7844 16.2114L27.9334 16.7858C27.9594 16.8867 28.0051 16.9815 28.0678 17.0646C28.1305 17.1477 28.2089 17.2176 28.2986 17.2701C28.3883 17.3227 28.4875 17.3569 28.5905 17.3708C28.6934 17.3847 28.7981 17.378 28.8984 17.3511C29.6258 17.1541 30.3663 17.0096 31.1142 16.9189C31.2261 16.9056 31.3339 16.8685 31.4303 16.8099C31.5267 16.7512 31.6094 16.6726 31.6729 16.5791C31.7364 16.4857 31.7792 16.3797 31.7984 16.2682C31.8176 16.1568 31.8127 16.0425 31.7841 15.9331L31.659 15.4529C31.2929 14.0516 30.9141 12.6023 30.5653 11.1754C30.4275 10.6243 30.1317 10.126 29.7145 9.74188C29.2974 9.35781 28.7772 9.10489 28.2183 9.01444C27.5025 8.89279 26.7718 8.74004 26.0651 8.59072C25.2815 8.42607 24.4714 8.25571 23.6598 8.12354C23.5978 8.11444 23.5368 8.09982 23.4775 8.07987C23.4701 7.99034 23.4708 7.90033 23.4798 7.81095L23.483 7.76704C23.5727 6.58962 23.627 5.87914 23.8398 5.60908C24.0526 5.33902 24.7198 5.13367 25.827 4.79113C25.8924 4.771 25.9569 4.74859 26.0212 4.72618C26.0699 4.70903 26.1187 4.69188 26.1681 4.67679C27.3189 4.32487 27.8459 3.38709 27.5438 2.23002C27.458 1.81795 27.2308 1.44917 26.9018 1.18799C26.5728 0.926806 26.163 0.789787 25.7436 0.800824C25.5171 0.802614 25.2916 0.832023 25.0721 0.888405C24.5216 1.02561 23.9747 1.17767 23.4278 1.32997C22.8916 1.47929 22.3555 1.62884 21.8156 1.76307C20.7053 2.03747 20.0893 2.74841 19.9847 3.87256C19.8979 4.80599 19.7772 5.73691 19.6495 6.72271C19.6258 6.90564 19.6021 7.08949 19.5782 7.27426C19.3889 7.25779 19.2152 7.23859 19.0507 7.20817C18.4355 7.09384 17.8218 6.97333 17.2082 6.8519C16.3774 6.68772 15.5185 6.51782 14.6661 6.36964C14.4468 6.32923 14.2246 6.30629 14.0016 6.30104C13.5288 6.29574 13.0708 6.46613 12.7156 6.77942C12.3605 7.09271 12.1334 7.52675 12.078 7.998C11.9374 9.23282 12.6178 9.99658 14.1017 10.2687C16.0463 10.6252 17.5288 10.9245 18.9097 11.2396C18.9754 11.2633 19.038 11.295 19.0961 11.3341C18.991 12.5957 18.7543 14.9013 18.6134 16.2523C18.6027 16.3569 18.5641 16.4566 18.5015 16.541C18.439 16.6253 18.3549 16.6912 18.2582 16.7315C18.1615 16.7719 18.0557 16.7853 17.952 16.7703C17.8483 16.7553 17.7506 16.7125 17.6692 16.6463C16.1538 15.4243 12.9503 12.8332 11.2205 11.4262C10.6509 10.9627 10.1222 10.7372 9.60472 10.7372C9.30081 10.7417 9.00295 10.8232 8.7388 10.974C8.47464 11.1249 8.25275 11.3403 8.09373 11.6002C6.79284 13.4635 5.27411 15.6818 3.87136 18.0067C3.52956 18.5733 3.75469 19.2161 3.95316 19.7832C4.0127 19.9422 4.06367 20.1042 4.10583 20.2687C4.12929 20.3746 4.1742 20.4745 4.23778 20.5622C4.30136 20.65 4.38225 20.7236 4.47541 20.7786C4.56858 20.8337 4.67203 20.8688 4.77932 20.882C4.88662 20.8952 4.99547 20.8861 5.0991 20.8552C5.25428 20.8095 5.41242 20.7693 5.57056 20.729C6.03026 20.6304 6.47688 20.4781 6.9013 20.2753C7.24954 20.0643 7.52324 19.7491 7.68403 19.3741C7.72778 19.293 7.77039 19.2111 7.81847 19.1391L9.71774 16.2981C9.77121 16.2181 9.84067 16.1502 9.92171 16.0987C10.0027 16.0471 10.0936 16.0131 10.1884 15.9987C10.2833 15.9843 10.3801 15.9899 10.4727 16.0151C10.5653 16.0403 10.6517 16.0846 10.7263 16.1451L15.6958 20.1731C15.7671 20.2308 15.8238 20.3047 15.8612 20.3886C15.8987 20.4725 15.9158 20.5642 15.9112 20.656C15.9066 20.7478 15.8804 20.8373 15.8348 20.917C15.7891 20.9967 15.7254 21.0645 15.6487 21.1148C15.1667 21.4301 14.5446 21.8447 14.1981 22.1054C13.1355 22.9144 11.8386 23.3529 10.5048 23.3541C8.62557 23.3541 6.73838 23.4522 4.91339 23.5476L3.71048 23.6093C2.38293 23.6752 1.59679 24.4305 1.60796 25.6299C1.61844 26.8258 2.4039 27.5695 3.65762 27.5695ZM3.74877 24.3992C5.99508 24.2876 8.24344 24.1447 10.4911 24.1447H10.5041C11.9933 24.1476 13.4428 23.6636 14.6333 22.7658C15.3422 22.2293 16.1085 21.7562 16.9748 21.1982C17.0535 21.1469 17.119 21.0777 17.1659 20.9962C17.2128 20.9146 17.2398 20.8231 17.2448 20.7291C17.2497 20.6351 17.2324 20.5413 17.1943 20.4552C17.1562 20.3692 17.0983 20.2935 17.0254 20.2342L10.557 14.9917C10.4814 14.9309 10.3941 14.8866 10.3006 14.8614C10.2071 14.8362 10.1094 14.8308 10.0137 14.8454C9.91797 14.8599 9.8263 14.8943 9.74446 14.9462C9.66262 14.9981 9.59239 15.0664 9.53818 15.1469C8.72173 16.3685 7.94311 17.5338 7.16403 18.6984C6.96192 19 6.82223 19.4265 6.53968 19.5728C6.27245 19.704 5.99213 19.8064 5.70341 19.8784C5.48464 19.9385 5.25125 19.9127 5.05075 19.8063C4.85025 19.6998 4.69773 19.5207 4.62423 19.3053C4.50642 18.9527 4.42325 18.6213 4.54744 18.4158C5.85881 16.2418 7.28685 14.1362 8.74019 12.0532C8.82832 11.8992 8.95401 11.7701 9.10547 11.6781C9.25692 11.5861 9.42918 11.5342 9.60608 11.5273C10.0254 11.5691 10.4191 11.7493 10.7254 12.0398C13.0077 13.897 15.2939 15.7498 17.5842 17.598C17.812 17.781 18.0438 17.9587 18.3149 18.1631C18.3979 18.2252 18.4958 18.2642 18.5987 18.2761C18.7016 18.2879 18.8057 18.2723 18.9006 18.2307C18.9955 18.1891 19.0777 18.123 19.1389 18.0392C19.2002 17.9554 19.2382 17.8569 19.2492 17.7535C19.4987 15.4099 19.7343 13.2535 19.9084 11.0924C19.9241 10.9007 19.4046 10.5406 19.0865 10.4679C17.4821 10.102 15.8651 9.78689 14.2461 9.49008C13.4058 9.33595 12.7317 9.03914 12.8703 8.03253C12.9728 7.28935 13.4251 7.09064 13.9574 7.09064C14.151 7.09372 14.344 7.11315 14.5344 7.14872C15.9973 7.403 17.4511 7.71605 18.9108 7.98588C19.3269 8.06272 19.7539 8.07483 20.268 8.1256C20.4503 6.65182 20.646 5.30198 20.772 3.94596C20.8472 3.13669 21.248 2.71914 22.0075 2.53072C23.0983 2.25974 24.1738 1.92703 25.2644 1.65582C25.4217 1.61492 25.5834 1.59327 25.7459 1.59134C25.9913 1.57859 26.2329 1.65714 26.4242 1.81194C26.6155 1.96674 26.7433 2.18692 26.7829 2.43033C26.9752 3.16734 26.6918 3.69122 25.9398 3.92103C25.8243 3.95648 25.7119 4.00038 25.5962 4.03537C22.8998 4.87116 22.9133 4.87116 22.6936 7.75241C22.6419 8.42905 22.7868 8.78394 23.5338 8.90559C25.0582 9.15393 26.561 9.53627 28.0843 9.79512C28.4985 9.86646 28.8829 10.058 29.1899 10.346C29.4969 10.634 29.7132 11.006 29.812 11.4159C30.1993 12.9938 30.6118 14.5636 31.0219 16.1346C30.2366 16.2297 29.4591 16.3809 28.6952 16.5871C28.3942 15.4252 28.0902 14.2638 27.8019 13.0987C27.601 12.2874 27.1587 11.9108 26.1855 11.8696C25.4204 11.8599 24.662 11.7258 23.9398 11.4724C23.6159 11.3292 23.2699 11.2426 22.9169 11.2163C22.5198 11.2163 22.2985 11.4329 22.2445 11.9643C22.0241 14.1367 21.7867 16.309 21.5864 18.4814C21.4955 19.4936 21.0869 20.4508 20.4195 21.2152C19.7653 21.9618 19.0252 22.795 18.9338 22.849C17.4089 23.7486 15.9715 24.7971 14.4567 25.7138C13.8861 26.0801 13.2388 26.309 12.5654 26.3824C9.63548 26.5672 6.69964 26.6596 3.7654 26.7755C3.72871 26.7769 3.69271 26.7776 3.65716 26.7776C2.9232 26.7776 2.4039 26.4647 2.39546 25.6219C2.38726 24.7383 3.00227 24.4355 3.74899 24.3985" fill="#FEFEFE"/>
<path d="M2.21644 34.7956C2.33767 34.7896 2.45889 34.7855 2.58103 34.7814C2.86677 34.7716 3.16232 34.7613 3.46356 34.7313C4.57919 34.6208 5.69498 34.5123 6.81092 34.4057C9.76932 34.1203 12.8284 33.8251 15.8345 33.4798L16.3358 33.4208C16.5257 33.3983 16.7011 33.3071 16.829 33.1643C16.9569 33.0215 17.0286 32.8369 17.0308 32.6449C17.0427 31.8972 17.107 31.1513 17.2233 30.4127C17.2363 30.3549 17.2429 30.2958 17.2429 30.2366C17.2431 30.1328 17.223 30.0301 17.1836 29.9341C17.1442 29.8382 17.0864 29.751 17.0134 29.6776C16.9404 29.6041 16.8537 29.5458 16.7582 29.506C16.6627 29.4662 16.5604 29.4457 16.457 29.4456H16.4388C16.4098 29.4462 16.3809 29.4482 16.3522 29.4518C15.4259 29.5577 14.4766 29.6436 13.5585 29.7262C11.5487 29.8742 9.54779 30.1261 7.56379 30.4808C5.85912 30.8158 4.1369 30.838 2.31328 30.8618C1.50231 30.8721 0.879318 31.1119 0.4785 31.5558C0.298196 31.7624 0.163699 32.0052 0.0839146 32.2679C0.00413031 32.5307 -0.0191203 32.8074 0.0157024 33.0799C0.0596807 33.5969 0.344059 34.7997 2.0305 34.7997C2.09127 34.7997 2.1537 34.7982 2.21781 34.7951M0.800932 33.0126C0.719811 32.0589 1.38473 31.6635 2.29004 31.6527C4.10933 31.6299 5.92976 31.607 7.7151 31.2569C10.5951 30.6907 13.5396 30.5691 16.4529 30.2361C16.3262 31.0298 16.2559 31.8315 16.2428 32.6351C16.0906 32.6534 15.9276 32.6726 15.7451 32.6937C11.6321 33.1663 7.50728 33.5361 3.38677 33.944C2.98663 33.9836 2.58285 33.9861 2.18067 34.0053C2.12985 34.0076 2.07995 34.0087 2.0305 34.0087C1.37926 34.0087 0.866785 33.7865 0.80002 33.0126" fill="#FEFEFE"/>
<path d="M22.2482 51.8455C24.1445 50.8128 23.8364 49.5388 23.4843 48.8714C23.0038 47.9613 22.2787 47.8252 21.8893 47.8252C21.3316 47.8618 20.7925 48.0404 20.3227 48.344C18.2167 49.5231 16.1061 50.6929 13.9907 51.8537C13.8973 51.9052 13.8032 51.9557 13.7084 52.0051V45.8081L14.0821 45.9279C15.0496 46.238 15.9506 46.5263 16.8477 46.8227C17.358 47.0222 17.8962 47.1405 18.4428 47.1733C19.6229 47.1733 20.1536 46.2357 20.6672 45.327L21.1845 44.4123C21.266 44.2684 21.3004 44.1026 21.283 43.938C21.2656 43.7735 21.1972 43.6186 21.0874 43.4951C20.5373 42.8791 20.0351 42.2217 19.5853 41.5285C19.514 41.4177 19.4161 41.3266 19.3007 41.2635C19.1853 41.2004 19.0559 41.1673 18.9245 41.1672H18.9049C18.7701 41.1706 18.6384 41.2087 18.5224 41.2777C18.4065 41.3468 18.3101 41.4446 18.2425 41.5617C18.1163 41.7768 18.0009 41.9981 17.8968 42.2248C17.6375 42.7988 17.4698 42.7988 17.3894 42.7988C17.2898 42.7988 14.1038 41.8923 13.9258 41.6419C13.6523 41.2557 13.7093 40.3687 13.7597 39.586C13.7806 39.2599 13.8023 38.9228 13.8037 38.599C13.8139 36.5147 12.7555 36.0551 11.8643 36.0365H11.8098C11.5568 36.0267 11.3045 36.0695 11.0688 36.1622C10.833 36.2548 10.6189 36.3954 10.4399 36.5751C10.0158 37.0141 9.8235 37.6683 9.85153 38.5757C9.86907 39.1387 9.86634 39.6962 9.86224 40.3333C9.54155 40.2265 9.22649 40.1211 8.91705 40.017C7.28552 39.4703 5.74446 38.9539 4.2002 38.5112C3.92353 38.4352 3.63779 38.3976 3.35094 38.3994C2.96175 38.3994 2.23257 38.4648 1.72055 38.9043C0.988874 39.5318 1.28419 40.9637 1.44484 41.416C1.98442 42.9312 2.57346 44.4514 3.14358 45.9208C3.48288 46.7966 3.8224 47.6722 4.15326 48.5505C4.31847 48.9894 4.82137 50.325 6.14026 50.325C6.40626 50.3217 6.6696 50.2714 6.9182 50.1764C7.16365 50.1002 7.3908 49.974 7.58547 49.8057C7.78013 49.6374 7.93812 49.4307 8.04956 49.1984C8.38999 48.4335 8.05115 47.5798 7.86909 47.1211C7.41928 45.9876 6.9836 44.8481 6.50348 43.592L6.43808 43.421C7.51134 43.7725 8.44536 44.0775 9.41015 44.3613C9.50061 44.3792 9.58612 44.4166 9.6608 44.4708C9.69535 44.5746 9.7064 44.6849 9.69316 44.7935C9.6444 46.8392 9.62321 48.9171 9.60201 50.9267C9.58903 52.1965 9.57604 53.4665 9.55644 54.7363C9.53935 55.8374 9.73668 56.5593 10.1771 57.0081C10.3275 57.1599 10.507 57.2793 10.7048 57.3593C10.9026 57.4392 11.1145 57.478 11.3277 57.4733C11.8146 57.4733 12.3633 57.2965 13.0542 56.9169C14.3362 56.2131 15.6165 55.5058 16.8951 54.7951C18.6775 53.8074 20.4625 52.8241 22.25 51.8452M12.6748 56.2236C12.2681 56.4819 11.8059 56.6393 11.3265 56.6827C10.6229 56.6827 10.3239 56.0498 10.343 54.7487C10.3945 51.4368 10.4 48.1238 10.4798 44.8127C10.4966 44.1152 10.2804 43.7937 9.63095 43.6026C8.22729 43.1898 6.84163 42.7158 5.10871 42.1574C5.87138 44.1404 6.4889 45.7832 7.13672 47.414C7.45893 48.2261 7.68862 49.0504 6.64635 49.4341C6.48472 49.4973 6.31324 49.5314 6.1398 49.5347C5.48947 49.5347 5.14653 48.9528 4.88996 48.2713C3.99307 45.8945 3.03603 43.541 2.18518 41.1492C2.00493 40.6429 1.94546 39.7495 2.23075 39.5048C2.55877 39.2791 2.95176 39.1683 3.34889 39.1894C3.5626 39.1877 3.77555 39.2151 3.98191 39.2709C6.10107 39.878 8.18218 40.6152 10.6443 41.4249C10.6443 40.3328 10.6671 39.4405 10.6384 38.5501C10.6096 37.6596 10.812 36.8266 11.8089 36.8268H11.8472C12.8676 36.8481 13.0193 37.6942 13.0148 38.5949C13.0091 39.7911 12.7012 41.279 13.2827 42.0997C13.8312 42.8745 15.3928 42.8809 16.4551 43.3476C16.7465 43.4908 17.0639 43.573 17.388 43.5893C17.9071 43.5893 18.2865 43.2742 18.6132 42.5509C18.7032 42.3515 18.8099 42.1544 18.9231 41.9582C19.3946 42.686 19.9214 43.3761 20.4988 44.0224C20.3247 44.3297 20.1527 44.6334 19.9811 44.9371C19.393 45.9771 19.0697 46.3827 18.4421 46.3827C17.9799 46.346 17.5256 46.2413 17.0938 46.072C15.9333 45.689 14.7684 45.319 13.4609 44.8991C13.3993 44.8791 13.3338 44.8739 13.2697 44.8839C13.2057 44.8939 13.1449 44.919 13.0923 44.9569C13.0396 44.9949 12.9966 45.0448 12.9667 45.1025C12.9369 45.1602 12.9209 45.2242 12.9202 45.2892V53.2865C13.4138 53.035 13.9 52.8063 14.3697 52.5468C16.4847 51.3816 18.5969 50.2109 20.7062 49.0346C21.061 48.8015 21.4668 48.6578 21.8888 48.6159C22.2306 48.6159 22.5444 48.7806 22.7878 49.2416C23.2663 50.1473 22.6738 50.7142 21.8724 51.1505C18.7976 52.8248 15.7437 54.5371 12.6748 56.2236Z" fill="#FEFEFE"/>
<path d="M40.0431 48.4463C40.0435 48.2372 39.9613 48.0365 39.8143 47.8882C39.6674 47.7399 39.4678 47.6563 39.2594 47.6556H39.253C39.2341 47.6556 39.2154 47.6556 39.1965 47.6572C39.1097 47.6635 39.0244 47.6842 38.9443 47.7185C38.0369 48.0841 37.0978 48.365 36.139 48.5577C36.0089 48.5834 35.8874 48.6416 35.7857 48.727C35.6841 48.8124 35.6056 48.9221 35.5575 49.0461L35.3428 49.6029C35.2745 49.7767 35.0065 50.2773 35.0065 50.2773C33.9811 50.7927 31.2467 51.9974 31.2467 51.9974L29.3399 48.5828C29.2388 48.4505 29.0965 48.3558 28.9357 48.3137C27.8919 48.0375 26.8789 47.655 25.9126 47.1722C25.7647 47.0981 25.5973 47.0726 25.4341 47.0993C25.271 47.126 25.1203 47.2035 25.0035 47.3208C24.8866 47.4381 24.8095 47.5894 24.783 47.7531C24.7566 47.9169 24.7821 48.0848 24.856 48.2332L27.3023 53.1462C27.3346 53.2104 27.3537 53.2805 27.3584 53.3522C27.363 53.424 27.3532 53.496 27.3295 53.5638C27.3057 53.6317 27.2686 53.694 27.2203 53.7472C27.172 53.8003 27.1135 53.843 27.0483 53.8729C26.3287 54.2008 25.0273 54.794 24.4556 55.0485C22.397 55.9655 20.2681 56.914 18.1929 57.8971C17.8346 58.0848 17.5204 58.3471 17.2713 58.6665C17.0223 58.986 16.8441 59.3551 16.7487 59.7493C16.591 60.5556 17.4286 61.5101 18.0703 61.7616C20.7382 62.8036 23.69 63.8987 27.3591 65.2083C27.6441 65.314 27.9451 65.3698 28.2489 65.3734C28.6571 65.3808 29.056 65.2508 29.3821 65.0042C29.7081 64.7575 29.9425 64.4085 30.0479 64.0126C30.224 63.475 30.4407 62.1517 28.652 61.4709C27.6494 61.0893 26.6417 60.7182 25.6346 60.3475C25.0421 60.1289 24.4497 59.9097 23.8572 59.6901L28.9883 57.389C29.0798 57.3478 29.1836 57.3435 29.2781 57.377C29.3727 57.4105 29.4508 57.4792 29.4962 57.5689L30.0381 58.6377C31.0015 60.5375 31.9381 62.3845 32.8725 64.2328L32.9443 64.3764C33.2656 65.0227 33.7512 66 34.8356 66C35.164 65.9929 35.4861 65.9081 35.7758 65.7526C37.568 64.8416 36.7176 63.1297 36.3546 62.3989C35.9916 61.6681 35.627 60.9372 35.2629 60.2071C34.8197 59.318 33.9014 57.4479 33.3807 56.3721C33.3319 56.2717 33.3038 56.1626 33.298 56.0511C33.2922 55.9396 33.3089 55.8282 33.3471 55.7233C33.3853 55.6185 33.4441 55.5224 33.5201 55.4409C33.5961 55.3594 33.6877 55.2942 33.7895 55.2491C34.7376 54.8272 36.2905 54.124 37.0496 53.7119C37.7749 53.3076 38.3458 52.6729 38.6724 51.9075C39.1662 50.7735 39.5903 49.7504 39.9681 48.7818C40.0173 48.6769 40.0432 48.5623 40.0431 48.4463ZM37.9437 51.6063C37.6921 52.2003 37.2506 52.6934 36.6889 53.0076C35.3959 53.7115 34.0328 54.2772 32.6055 54.9072C32.4385 54.9829 32.3079 55.1212 32.2415 55.2926C32.1752 55.4639 32.1785 55.6545 32.2507 55.8235C32.4157 56.2035 32.5697 56.5552 32.7397 56.9007C33.7027 58.8538 34.6797 60.7998 35.6484 62.7499C36.0542 63.5672 36.5143 64.4903 35.4192 65.0464C35.2399 65.1458 35.0398 65.2014 34.8352 65.2086C34.1857 65.2086 33.8822 64.4846 33.5744 63.8754C32.3591 61.4716 31.1403 59.0699 29.8636 56.552C29.8157 56.4608 29.7354 56.3909 29.6386 56.3562C29.5417 56.3215 29.4355 56.3245 29.3408 56.3647C26.9102 57.4544 24.5401 58.5174 21.9019 59.7006C22.5019 59.975 22.8288 60.1497 23.1727 60.2784C24.9045 60.9274 26.6438 61.553 28.3717 62.2105C29.0667 62.475 29.5764 62.9193 29.2987 63.7654C29.2443 64.0023 29.11 64.2131 28.9186 64.362C28.7272 64.511 28.4904 64.589 28.2482 64.5829C28.0344 64.5789 27.8228 64.5385 27.6225 64.4633C24.5192 63.3559 21.4245 62.2235 18.3554 61.0248C17.9669 60.8732 17.4589 60.2213 17.5211 59.9023C17.5924 59.6296 17.7186 59.3745 17.8918 59.1526C18.0651 58.9307 18.2818 58.7468 18.5285 58.6121C21.3997 57.2527 24.3134 55.9856 27.2103 54.6829C27.4944 54.555 27.7731 54.4153 28.0844 54.2594C28.2218 54.1897 28.3264 54.0686 28.3754 53.9221C28.4245 53.7756 28.4141 53.6157 28.3464 53.4769L25.5594 47.8801C26.5704 48.3854 27.63 48.7861 28.7219 49.0759C28.7219 49.0759 30.4729 52.3916 30.6502 52.6459C30.7235 52.7495 30.8303 52.8243 30.9525 52.8577C31.0747 52.8911 31.2046 52.8809 31.3201 52.8288C32.6873 52.2221 34.0593 51.6386 35.3877 50.9665C35.7161 50.8009 35.92 50.288 36.075 49.8918C36.1479 49.7061 36.2181 49.5188 36.2905 49.3327C37.3032 49.1297 38.2949 48.8328 39.2528 48.4456C38.839 49.5085 38.3983 50.5615 37.9437 51.6056" fill="#FEFEFE"/>
<path d="M60.8417 45.7707C60.4583 45.7811 60.0767 45.8287 59.7024 45.9129C59.1986 46.0149 58.937 46.4329 58.7454 46.7382C58.7037 46.8045 58.6636 46.8711 58.621 46.9271C57.7478 48.0727 56.8755 49.2191 56.0041 50.3663L55.9597 49.8758C55.8164 48.3014 55.6685 46.6744 55.6097 45.0797C55.5484 43.4143 54.7183 42.516 52.9977 42.2531C52.3004 42.159 51.6103 42.0177 50.932 41.83L50.294 41.6411C49.0063 41.2588 48.2291 41.0279 47.5936 41.0279C47.319 41.0229 47.0464 41.0764 46.794 41.185C46.6527 41.2477 46.5329 41.3506 46.4494 41.4811C46.2528 41.7884 46.0347 42.101 45.7832 42.4367C45.7593 42.4684 45.7378 42.5019 45.7189 42.5369L45.6615 42.6441L45.5719 42.8106C45.5526 42.8465 45.5362 42.8839 45.5227 42.9224C44.9372 44.5841 44.353 46.2462 43.77 47.9088C43.2067 49.5131 42.6428 51.1173 42.0785 52.7214C41.7923 53.5339 41.5047 54.3461 41.2156 55.1579C40.4383 57.3467 39.6344 59.6101 38.8879 61.8554C38.65 62.5707 38.8562 63.4243 39.1288 63.9846C39.4058 64.5544 40.1938 64.762 40.6555 64.762C40.8651 64.7668 41.0724 64.7177 41.2577 64.6193C41.8496 64.2733 42.3112 63.7408 42.5707 63.1046C43.0763 61.8282 43.5353 60.5394 44.0213 59.1749C44.088 58.987 44.1555 58.7975 44.2239 58.6065L44.6135 58.9099C45.5398 59.6304 46.4153 60.3116 47.2853 60.9999C47.8481 61.4449 48.3653 61.6615 48.8671 61.6615C49.2818 61.6615 49.8829 61.5097 50.3938 60.7868C50.7267 60.3151 51.3281 59.0839 49.7221 57.8523C49.2208 57.4672 48.7231 57.0748 48.2266 56.6824C47.4698 56.0844 46.6873 55.4661 45.8923 54.881C45.7994 54.8149 45.7311 54.7197 45.6981 54.6103C45.6651 54.501 45.6693 54.3837 45.71 54.277C46.1753 53.058 46.6119 51.8104 47.0339 50.6039C47.2057 50.1132 47.3782 49.6226 47.5514 49.1322L48.8974 45.3417L49.2319 45.4154C49.9659 45.5597 50.6901 45.75 51.4003 45.9852C51.5318 46.0928 51.6303 46.2355 51.6845 46.3968C51.8269 47.834 51.9445 49.3064 52.0582 50.7303C52.181 52.2707 52.3088 53.8631 52.4683 55.4309C52.5385 56.1169 53.0637 57.2084 53.8674 57.4697C54.0057 57.5138 54.15 57.5358 54.2951 57.5349C54.9641 57.5349 55.7261 57.092 56.1509 56.6804C56.6243 56.1954 57.0515 55.6672 57.4269 55.1025C57.5712 54.8988 57.7154 54.695 57.8651 54.4968C58.2256 54.019 58.5878 53.5425 58.9518 53.0671C60.018 51.6697 61.1207 50.2245 62.1419 48.7478C62.5788 48.1155 62.5861 46.7499 61.9952 46.1656C61.8389 46.0258 61.6563 45.9189 61.4581 45.8513C61.2598 45.7837 61.0501 45.7568 60.8413 45.7721M61.4946 48.2971C60.1436 50.2517 58.669 52.1214 57.2376 54.0193C56.7032 54.7282 56.235 55.5034 55.6045 56.1126C55.2816 56.4254 54.706 56.7453 54.2958 56.7453C54.2332 56.7461 54.1708 56.7371 54.111 56.7185C53.7091 56.588 53.3046 55.856 53.2529 55.3516C52.9457 52.3443 52.767 49.3238 52.4688 46.3152C52.4258 46.0864 52.3311 45.8705 52.1919 45.6842C52.0528 45.4979 51.873 45.3461 51.6662 45.2404C50.6568 44.8787 49.5822 44.6996 48.3911 44.414C47.852 45.9319 47.3308 47.3993 46.8099 48.8667C46.2024 50.5776 45.6221 52.2986 44.9749 53.9942C44.8723 54.2627 44.8609 54.5577 44.9425 54.8333C45.0241 55.109 45.1941 55.3499 45.4261 55.5187C46.7227 56.4729 47.9652 57.5006 49.2433 58.4807C49.8948 58.9803 50.2792 59.5806 49.7503 60.3302C49.6604 60.4874 49.5324 60.6194 49.3782 60.7139C49.224 60.8083 49.0485 60.8622 48.868 60.8705C48.4599 60.8302 48.0759 60.6575 47.7743 60.3786C46.5226 59.3887 45.26 58.4121 43.8513 57.3145C43.1388 59.2867 42.5315 61.0665 41.8397 62.8128C41.6463 63.2785 41.3088 63.6695 40.877 63.9278C40.8082 63.9601 40.7326 63.975 40.6568 63.9713C40.3551 63.9713 39.924 63.8163 39.8379 63.639C39.6212 63.1934 39.4865 62.5572 39.6365 62.1069C40.6521 59.0514 41.7526 56.0243 42.8225 52.9862C43.9723 49.7205 45.1203 46.4542 46.2665 43.1874C46.3075 43.1113 46.3727 42.9898 46.4134 42.913C46.6582 42.5869 46.892 42.2538 47.1134 41.9092C47.2657 41.8456 47.4296 41.8151 47.5945 41.8195C48.2026 41.8195 49.1239 42.1232 50.7119 42.5899C51.4241 42.7869 52.1486 42.9359 52.8805 43.0358C54.2149 43.2398 54.7757 43.8117 54.8235 45.1096C54.9081 47.4066 55.169 49.6968 55.3554 51.9899L55.6883 52.0882C56.8746 50.528 58.0613 48.9681 59.2485 47.4082C59.4433 47.1523 59.6167 46.738 59.8587 46.6891C60.1817 46.616 60.5108 46.5736 60.8417 46.5624C61.0556 46.5409 61.2698 46.6001 61.4426 46.7284C61.7227 47.0055 61.7491 47.9291 61.495 48.2966" fill="#FEFEFE"/>
<path d="M65.6897 33.3434C65.3358 32.7607 64.9108 32.2247 64.4246 31.7477C64.2468 31.5588 64.0689 31.3699 63.9005 31.176C63.1772 30.3338 62.4551 29.4907 61.7045 28.6149C61.6467 28.547 61.6034 28.468 61.5772 28.3827C61.5511 28.2974 61.5426 28.2076 61.5524 28.1188C61.5621 28.0301 61.5899 27.9443 61.634 27.8668C61.6781 27.7892 61.7375 27.7216 61.8086 27.668C62.5919 27.1005 63.3449 26.4922 64.0645 25.8455C64.6533 25.3006 64.8607 24.2599 64.7206 23.5686C64.5401 22.6768 63.1938 22.4076 62.7356 22.3843C62.7222 22.3843 62.683 22.3825 62.6695 22.3825C62.1179 22.3825 61.6703 22.7255 61.3108 22.9999L61.1918 23.0914C60.4984 23.6091 59.8144 24.1391 59.0991 24.6943C58.9862 24.7823 58.8471 24.8296 58.7042 24.8288C58.6105 24.8291 58.5178 24.8093 58.4325 24.7706C58.3471 24.7319 58.271 24.6752 58.2093 24.6045L55.6979 21.7075L56.0712 21.4436C57.1068 20.7118 58.1778 19.9535 59.2397 19.2255C60.5176 18.3497 61.3618 17.7711 61.4785 16.8681C61.5951 15.9651 60.935 15.2013 59.9363 14.0452C58.389 12.2544 56.8363 10.4686 55.278 8.68787L54.2956 7.56143C54.1002 7.31599 53.8544 7.11567 53.5749 6.97409C53.2954 6.83252 52.9888 6.753 52.676 6.74096C52.4137 6.74267 52.1552 6.80464 51.9205 6.92213C51.6857 7.03962 51.4809 7.2095 51.3218 7.41874C50.768 8.11299 50.9747 9.27875 51.185 9.85797C51.3859 10.3228 51.6886 10.7361 52.0705 11.0674C52.182 11.1783 52.2941 11.2888 52.3934 11.404L56.1673 15.7863C56.2154 15.8418 56.2512 15.9068 56.2727 15.9771C56.2941 16.0474 56.3006 16.1214 56.2917 16.1944C56.2829 16.2674 56.2589 16.3377 56.2213 16.4008C56.1837 16.4639 56.1333 16.5184 56.0735 16.5608L53.4715 18.4087C53.2039 18.6165 53.105 18.6188 53.1041 18.6188C53.0996 18.6188 52.9877 18.6042 52.6386 18.244C49.7324 15.2464 47.492 11.6482 45.3241 8.16856C44.9283 7.53262 44.5233 6.88251 44.1136 6.23469C44.7708 6.43775 45.4077 6.62709 46.0551 6.78487C46.3748 6.87218 46.7037 6.921 47.0349 6.9303C47.4418 6.94506 47.841 6.81555 48.1622 6.5645C48.4835 6.31345 48.7065 5.95689 48.792 5.55737C48.9914 4.82562 49.0358 3.51557 47.0944 2.96058C46.2513 2.71956 45.4111 2.4646 44.5714 2.2094C43.2774 1.81654 41.9393 1.40905 40.602 1.06147C40.3435 0.99951 40.0784 0.969484 39.8127 0.972064C39.1457 0.972064 38.2907 1.10561 38.005 1.74245C37.6803 2.4662 37.7771 3.60521 38.2265 4.33558C38.7904 5.25346 39.3382 6.15671 39.8787 7.04761C42.3759 11.1648 44.7469 15.0739 47.8272 18.9479C47.919 19.0617 47.9868 19.1932 48.0262 19.3342C48.0657 19.4752 48.0761 19.6229 48.0567 19.7681C48.0374 19.9133 47.9887 20.053 47.9137 20.1786C47.8387 20.3043 47.7389 20.4133 47.6205 20.4989L45.5882 21.953C45.4186 22.0744 45.3038 22.2583 45.269 22.4643C45.2341 22.6704 45.2819 22.8819 45.402 23.0527C45.5456 23.2569 45.7625 23.5304 45.992 23.8199C46.3291 24.2235 46.6417 24.6471 46.928 25.0883C46.9817 25.1861 47.0553 25.2713 47.1442 25.3384C47.233 25.4055 47.3349 25.453 47.4433 25.4777C47.5517 25.5025 47.6641 25.5039 47.7731 25.482C47.8821 25.4601 47.9853 25.4152 48.0758 25.3504L50.7744 23.4165C50.9468 23.2947 51.1573 23.2395 51.367 23.2611C51.5768 23.2827 51.7717 23.3797 51.9158 23.5341C52.202 23.8375 52.4855 24.1307 52.7676 24.4174C53.2363 24.8924 54.3795 26.2493 55.008 27.0046C55.0642 27.0719 55.1062 27.15 55.1315 27.2341C55.1568 27.3182 55.1649 27.4065 55.1552 27.4938C55.1455 27.5811 55.1182 27.6655 55.0751 27.7419C55.032 27.8184 54.9739 27.8852 54.9043 27.9385C53.705 28.8589 50.7895 31.0953 49.2988 32.2194C49.1993 32.2952 49.1188 32.3933 49.0639 32.5059C49.0089 32.6185 48.9809 32.7424 48.9823 32.8677C48.9754 34.3404 48.7669 35.8052 48.3624 37.2209C48.3059 37.4209 48.33 37.6352 48.4297 37.8174C48.5293 37.9996 48.6965 38.1351 48.895 38.1946L48.9419 38.2086C48.972 38.2172 49.0023 38.2259 49.0331 38.2367C53.3591 39.718 57.672 41.1486 62.0775 42.6043C62.4592 42.7425 62.8602 42.8197 63.2659 42.833C64.1614 42.833 64.8033 42.3299 65.0733 41.4152C65.606 39.6087 63.9011 39.0427 63.3415 38.8564C60.4819 37.9049 57.6247 36.9467 54.7698 35.9818C54.1977 35.7885 53.1875 35.4329 52.6085 35.2299C52.5652 35.2152 52.5268 35.189 52.4973 35.1539C52.4678 35.1189 52.4484 35.0765 52.4412 35.0312C52.434 34.986 52.4393 34.9396 52.4564 34.8971C52.4736 34.8546 52.502 34.8176 52.5386 34.7902C53.5688 34.0017 56.4629 31.7811 57.6462 30.8113C57.7678 30.6888 57.916 30.5961 58.0791 30.5405C58.2208 30.6392 58.3441 30.762 58.4437 30.9032C59.5313 32.2524 60.6969 33.5613 61.8241 34.8281L62.6654 35.7753C62.8632 36.0148 63.1091 36.2099 63.387 36.3478C63.665 36.4857 63.9687 36.5633 64.2785 36.5756C64.5443 36.5749 64.8064 36.5121 65.0439 36.3923C65.2814 36.2724 65.4879 36.0988 65.6471 35.885C66.1484 35.2409 66.0723 34.0275 65.6901 33.3418M65.0261 35.3982C64.9406 35.5171 64.8283 35.6141 64.6984 35.6813C64.5685 35.7485 64.4246 35.784 64.2785 35.7849C64.0802 35.7724 63.8867 35.7184 63.7104 35.6265C63.5341 35.5346 63.3789 35.4068 63.2547 35.2512C61.8387 33.6505 60.3972 32.0687 59.056 30.4063C58.7003 29.965 58.4027 29.7503 58.0778 29.7503C57.718 29.7503 57.3258 30.0141 56.7824 30.5252C55.2928 31.893 53.6908 33.1322 51.9935 34.2297C51.6975 34.4324 51.4165 34.6565 51.1529 34.9001C51.0991 34.9482 51.0587 35.0094 51.0357 35.0779C51.0126 35.1463 51.0078 35.2196 51.0216 35.2905C51.0354 35.3614 51.0674 35.4275 51.1144 35.4822C51.1614 35.537 51.2218 35.5785 51.2896 35.6026C52.4467 36.011 53.4803 36.3801 54.5201 36.7323C57.376 37.6985 60.2345 38.6571 63.0956 39.6082C63.8704 39.866 64.6112 40.206 64.3204 41.1918C64.1286 41.8408 63.7307 42.0436 63.2684 42.0436C62.9466 42.0294 62.6289 41.9655 62.3266 41.854C57.9755 40.4152 53.6255 38.9728 49.2901 37.488C49.2324 37.4683 49.178 37.4533 49.1224 37.4366C49.5488 35.946 49.7675 34.4034 49.7723 32.8526C51.8324 31.2977 53.883 29.7198 55.9764 28.1118C56.0449 28.0597 56.1025 27.9944 56.1457 27.9197C56.1889 27.8451 56.2169 27.7626 56.2281 27.677C56.2393 27.5914 56.2335 27.5044 56.2109 27.4211C56.1884 27.3378 56.1495 27.2598 56.0967 27.1917C55.4088 26.3126 54.0156 24.5562 53.3293 23.8608C52.8851 23.4105 52.4502 22.9537 52.0245 22.4904C51.8816 22.3339 51.6866 22.2352 51.4762 22.2128C51.2658 22.1905 51.0546 22.2461 50.8822 22.3692L48.0015 24.4311C47.9531 24.4658 47.8984 24.4904 47.8405 24.5037C47.7825 24.517 47.7226 24.5185 47.664 24.5083C47.6055 24.4981 47.5495 24.4764 47.4994 24.4443C47.4493 24.4123 47.4061 24.3706 47.3721 24.3216C47.0759 23.9018 46.645 23.3758 46.3269 22.9681C46.2898 22.9204 46.2628 22.8657 46.2474 22.8072C46.232 22.7487 46.2285 22.6877 46.2373 22.6278C46.2461 22.568 46.2669 22.5105 46.2984 22.459C46.33 22.4074 46.3716 22.3628 46.4208 22.3278L48.8118 20.6165C48.928 20.5339 49.0265 20.4289 49.1016 20.3075C49.1766 20.1861 49.2267 20.0508 49.2488 19.9097C49.271 19.7686 49.2647 19.6245 49.2304 19.4858C49.1961 19.3472 49.1345 19.2168 49.0492 19.1024C47.3323 16.7956 42.5874 10.2833 38.898 3.91871C38.5936 3.42364 38.4995 2.5659 38.7241 2.06648C38.8135 1.86777 39.3278 1.76212 39.8133 1.76212C40.0122 1.75921 40.2107 1.78064 40.4044 1.82592C42.5792 2.39348 44.717 3.10259 46.8793 3.72045C47.7365 3.96559 48.2932 4.39092 48.0327 5.34813C47.8637 5.96852 47.4747 6.14002 47.0363 6.14002C46.7679 6.13001 46.5017 6.0888 46.2428 6.01722C45.0857 5.73481 43.9541 5.34653 42.6241 4.94636C42.7255 5.3335 42.7296 5.53107 42.8207 5.67284C45.7242 10.1742 48.3007 14.9036 52.0744 18.796C52.4572 19.1912 52.7648 19.4102 53.1048 19.4102C53.4216 19.383 53.7204 19.2509 53.9543 19.0348C54.9234 18.282 55.9461 17.5985 57.0382 16.8464C57.1233 16.7866 57.195 16.7096 57.2486 16.6203C57.3022 16.531 57.3365 16.4314 57.3494 16.328C57.3623 16.2246 57.3534 16.1196 57.3234 16.0198C57.2933 15.9201 57.2428 15.8277 57.175 15.7488L52.9888 10.8879C52.6204 10.4601 52.1047 10.0855 51.9249 9.58883C51.7406 9.07912 51.656 8.26574 51.9368 7.91359C52.0221 7.79693 52.1333 7.70178 52.2616 7.63566C52.3899 7.56954 52.5318 7.53427 52.676 7.53262C52.876 7.54671 53.0709 7.60299 53.2478 7.69779C53.4248 7.7926 53.5798 7.92379 53.7027 8.0828C55.5843 10.2408 57.4637 12.4012 59.3409 14.5638C61.2529 16.7773 61.2244 16.9086 58.7953 18.5731C57.4671 19.4829 56.1559 20.4178 54.8405 21.3464C54.7821 21.3878 54.7596 21.4806 54.6393 21.6917L57.6159 25.1217C57.8574 25.3993 58.1951 25.574 58.5605 25.6104C58.9258 25.6468 59.2912 25.5422 59.5824 25.3177C60.2933 24.7655 60.9724 24.2386 61.6628 23.7239C61.9713 23.4936 62.3409 23.1716 62.6704 23.1716H62.6962C63.1451 23.1945 63.8943 23.4518 63.9495 23.7239C64.0463 24.2013 63.8763 24.9427 63.5313 25.2619C62.8356 25.8864 62.108 26.4741 61.3513 27.0227C61.192 27.1424 61.0588 27.2937 60.96 27.4671C60.8613 27.6406 60.7991 27.8325 60.7772 28.0311C60.7554 28.2297 60.7744 28.4306 60.8331 28.6215C60.8918 28.8124 60.9889 28.9891 61.1184 29.1408C61.8656 30.0135 62.5848 30.8529 63.306 31.6914C63.8841 32.3644 64.5802 32.9699 65.0031 33.7291C65.2513 34.1746 65.3025 35.046 65.027 35.3998" fill="#FEFEFE"/>
<path d="M21.259 32.7658C21.259 35.0999 21.9487 37.3817 23.241 39.3225C24.5332 41.2633 26.3699 42.7759 28.5188 43.6691C30.6677 44.5624 33.0323 44.7961 35.3136 44.3407C37.5949 43.8853 39.6903 42.7613 41.335 41.1108C42.9797 39.4602 44.0998 37.3574 44.5535 35.068C45.0072 32.7787 44.7743 30.4058 43.8842 28.2493C42.994 26.0928 41.4867 24.2497 39.5527 22.9529C37.6187 21.6562 35.3449 20.964 33.019 20.9641C29.9 20.9641 26.9088 22.2076 24.7034 24.4208C22.498 26.634 21.259 29.6358 21.259 32.7658ZM40.9668 32.7658C40.9668 34.3433 40.5007 35.8853 39.6274 37.197C38.7541 38.5086 37.5129 39.5309 36.0606 40.1346C34.6084 40.7383 33.0103 40.8963 31.4686 40.5886C29.9269 40.2809 28.5107 39.5213 27.3991 38.4058C26.2876 37.2904 25.5306 35.8693 25.2239 34.3221C24.9173 32.7749 25.0746 31.1713 25.6762 29.7139C26.2777 28.2564 27.2964 27.0108 28.6034 26.1344C29.9104 25.258 31.4471 24.7902 33.019 24.7902C34.0627 24.7902 35.0962 24.9964 36.0605 25.3972C37.0247 25.798 37.9009 26.3855 38.6389 27.1261C39.3769 27.8667 39.9624 28.7459 40.3618 29.7136C40.7612 30.6813 40.9668 31.7184 40.9668 32.7658Z" fill="#FEFEFE"/>
</g>
</svg>
