<svg width="1820" height="195" viewBox="0 0 1820 195" fill="none" xmlns="http://www.w3.org/2000/svg">
<path d="M226.189 0.000294222C233.628 -0.023527 240.999 1.39936 247.877 4.18699C254.755 6.97463 261.004 11.072 266.265 16.243C271.525 21.4141 275.692 27.5568 278.527 34.3174C281.361 41.078 282.807 48.3229 282.781 55.635V138.878C282.805 146.189 281.358 153.433 278.522 160.192C275.686 166.951 271.519 173.092 266.259 178.262C260.999 183.432 254.751 187.528 247.874 190.316C240.997 193.103 233.627 194.526 226.189 194.503H56.5998C49.1669 194.505 41.8065 193.067 34.9392 190.272C28.0718 187.477 21.8319 183.38 16.5759 178.214C11.3199 173.049 7.15069 166.916 4.30656 160.167C1.46243 153.418 -0.000891505 146.184 9.18188e-07 138.878V55.635C-0.00133802 48.3298 1.46172 41.0959 4.30573 34.3465C7.14974 27.5972 11.3189 21.4648 16.575 16.2995C21.8312 11.1342 28.0713 7.03735 34.9388 4.24298C41.8064 1.4486 49.1669 0.0114477 56.5998 0.0136406L226.189 0.000294222ZM243.203 49.9831C243.227 47.7962 242.801 45.6271 241.952 43.6056C241.103 41.5841 239.847 39.7518 238.26 38.2185C236.708 36.614 234.833 35.3441 232.755 34.4896C230.677 33.635 228.441 33.2143 226.189 33.2543H56.5998C52.103 33.3097 47.8063 35.0899 44.6264 38.2153C41.4465 41.3406 39.635 45.5635 39.5787 49.9831V144.507C39.6333 148.926 41.4445 153.15 44.6249 156.274C47.8054 159.399 52.1031 161.177 56.5998 161.229H226.189C228.44 161.269 230.676 160.849 232.754 159.995C234.832 159.142 236.707 157.874 238.26 156.272C239.847 154.738 241.103 152.906 241.952 150.885C242.801 148.863 243.227 146.694 243.203 144.507V49.9831Z" fill="#FEFEFE"/>
<path d="M619.889 75.0763C620.031 85.8881 616.86 96.4918 610.789 105.509C604.897 114.378 596.509 121.373 586.645 125.643L587.44 127.196L618.901 192.158C619.034 192.683 618.964 193.237 618.704 193.714C618.579 193.965 618.381 194.173 618.134 194.312C617.888 194.45 617.605 194.513 617.321 194.492H577.148C576.819 194.49 576.497 194.398 576.218 194.227C575.939 194.055 575.714 193.81 575.569 193.52L545.09 130.698H376.887V192.933C376.883 193.135 376.837 193.334 376.752 193.519C376.666 193.703 376.544 193.868 376.391 194.004C376.222 194.168 376.02 194.296 375.799 194.38C375.577 194.463 375.341 194.502 375.104 194.492H338.894C338.482 194.466 338.094 194.293 337.802 194.006C337.51 193.719 337.335 193.338 337.308 192.933V1.75129C337.298 1.51876 337.337 1.28673 337.423 1.06963C337.508 0.852535 337.638 0.655016 337.804 0.489375C337.942 0.338778 338.11 0.217756 338.298 0.133888C338.485 0.050021 338.688 0.00510087 338.894 0.00195312H563.497C570.92 0.00322362 578.27 1.44467 585.125 4.24362C591.98 7.04257 598.206 11.144 603.445 16.3126C608.684 21.4813 612.834 27.6156 615.656 34.3637C618.477 41.1118 619.916 48.341 619.889 55.6367V75.0763ZM376.887 97.2467H563.497C565.711 97.2779 567.909 96.8623 569.954 96.0257C571.999 95.1891 573.847 93.9492 575.385 92.3827C576.991 90.8425 578.259 88.995 579.111 86.9543C579.962 84.9136 580.378 82.7231 580.334 80.518V49.9848C580.314 45.6065 578.535 41.4132 575.385 38.3173C572.235 35.2213 567.968 33.4731 563.514 33.4529H376.887V97.2467Z" fill="#FEFEFE"/>
<path d="M713.992 192.932C713.987 193.134 713.941 193.333 713.855 193.518C713.77 193.702 713.648 193.867 713.496 194.004C713.327 194.167 713.125 194.295 712.904 194.379C712.682 194.463 712.446 194.501 712.208 194.491H675.999C675.587 194.465 675.199 194.292 674.907 194.006C674.615 193.719 674.439 193.337 674.413 192.932V1.75085C674.404 1.51786 674.443 1.28541 674.528 1.06782C674.613 0.850225 674.743 0.652096 674.909 0.485596C675.047 0.336076 675.216 0.215982 675.403 0.132734C675.591 0.0494854 675.794 0.00482951 675.999 0.0015117H712.208C712.445 -0.00828299 712.682 0.0295985 712.903 0.112842C713.124 0.196085 713.326 0.322946 713.496 0.485596C713.661 0.653005 713.789 0.851287 713.875 1.06866C713.96 1.28603 714 1.51804 713.992 1.75085V192.932Z" fill="#FEFEFE"/>
<path d="M994.693 161.217C999.19 161.167 1003.49 159.39 1006.67 156.265C1009.85 153.139 1011.66 148.915 1011.71 144.495V98.9785C1011.7 98.7467 1011.74 98.5154 1011.83 98.2986C1011.91 98.0818 1012.04 97.8839 1012.2 97.7166C1012.34 97.5667 1012.51 97.4464 1012.7 97.3632C1012.89 97.2799 1013.1 97.2355 1013.3 97.2325H1049.5C1049.74 97.225 1049.98 97.2639 1050.2 97.347C1050.43 97.4301 1050.63 97.5557 1050.81 97.7166C1050.97 97.8839 1051.1 98.0818 1051.18 98.2986C1051.27 98.5154 1051.3 98.7467 1051.3 98.9785V144.495C1051.25 157.773 1045.85 170.492 1036.28 179.863C1026.71 189.233 1013.75 194.489 1000.24 194.477H825.107C817.668 194.5 810.298 193.077 803.42 190.29C796.543 187.502 790.295 183.405 785.034 178.235C779.774 173.065 775.606 166.923 772.771 160.164C769.935 153.405 768.487 146.161 768.511 138.849V55.6225C768.488 48.3115 769.936 41.0681 772.772 34.3093C775.608 27.5504 779.776 21.4095 785.036 16.24C790.296 11.0704 796.544 6.97434 803.421 4.18742C810.299 1.40051 817.669 -0.0222079 825.107 0.00115786H1049.5C1049.74 -0.00738 1049.98 0.0313695 1050.2 0.115086C1050.43 0.198802 1050.63 0.325799 1050.81 0.488579C1050.97 0.655473 1051.1 0.853361 1051.18 1.07027C1051.27 1.28717 1051.31 1.51857 1051.3 1.7505V31.7028C1051.29 31.9041 1051.25 32.1026 1051.16 32.2862C1051.08 32.4698 1050.96 32.6348 1050.81 32.7711C1050.63 32.9328 1050.43 33.0589 1050.2 33.142C1049.98 33.2251 1049.74 33.2636 1049.5 33.2551H825.107C822.855 33.215 820.619 33.6355 818.541 34.4901C816.462 35.3447 814.588 36.6147 813.035 38.2194C811.446 39.7512 810.189 41.583 809.339 43.6048C808.489 45.6266 808.064 47.7965 808.09 49.9839V144.508C808.064 146.695 808.489 148.865 809.339 150.887C810.189 152.909 811.446 154.741 813.035 156.272C814.589 157.875 816.464 159.143 818.542 159.997C820.62 160.85 822.856 161.27 825.107 161.23L994.693 161.217Z" fill="#FEFEFE"/>
<path d="M1145.39 192.932C1145.39 193.134 1145.34 193.333 1145.26 193.517C1145.17 193.702 1145.05 193.867 1144.9 194.004C1144.73 194.166 1144.53 194.293 1144.31 194.377C1144.09 194.461 1143.85 194.5 1143.62 194.491H1107.39C1106.99 194.46 1106.6 194.286 1106.31 194C1106.02 193.714 1105.84 193.335 1105.82 192.932V1.75104C1105.81 1.51774 1105.84 1.28499 1105.93 1.0673C1106.02 0.849607 1106.15 0.651657 1106.31 0.485791C1106.45 0.337176 1106.62 0.217585 1106.8 0.134354C1106.99 0.0511243 1107.19 0.00598924 1107.39 0.00170614H1143.61C1143.85 -0.00880115 1144.09 0.029312 1144.31 0.113596C1144.53 0.197881 1144.73 0.326484 1144.89 0.491165C1145.06 0.655846 1145.19 0.85297 1145.28 1.06992C1145.36 1.28687 1145.4 1.51887 1145.39 1.75104L1145.39 192.932Z" fill="#FEFEFE"/>
<path d="M1199.91 56.0484C1199.96 41.3097 1205.93 27.1867 1216.54 16.7648C1227.14 6.34295 1241.51 0.469283 1256.51 0.427004H1426.1C1433.54 0.425249 1440.9 1.86275 1447.76 4.65741C1454.63 7.45207 1460.87 11.5491 1466.12 16.7144C1471.38 21.8797 1475.55 28.0121 1478.39 34.7612C1481.23 41.5102 1482.7 48.7437 1482.69 56.0484V193.358C1482.69 193.559 1482.64 193.758 1482.56 193.943C1482.48 194.127 1482.35 194.292 1482.2 194.429C1482.03 194.593 1481.83 194.72 1481.61 194.804C1481.39 194.888 1481.15 194.926 1480.91 194.917H1444.9C1444.67 194.926 1444.43 194.888 1444.21 194.804C1443.99 194.72 1443.79 194.592 1443.62 194.429C1443.47 194.292 1443.35 194.127 1443.26 193.943C1443.18 193.758 1443.13 193.559 1443.13 193.358V50.6034C1443.15 48.4027 1442.72 46.2208 1441.87 44.1845C1441.02 42.1483 1439.77 40.2983 1438.18 38.7421C1436.6 37.1859 1434.72 35.9545 1432.64 35.1195C1430.57 34.2844 1428.35 33.8624 1426.11 33.8779H1256.51C1254.28 33.8546 1252.08 34.2732 1250.02 35.1084C1247.96 35.9436 1246.1 37.1784 1244.54 38.7387C1242.91 40.2635 1241.61 42.1059 1240.74 44.1485C1239.87 46.1911 1239.45 48.3894 1239.49 50.6034V193.358C1239.46 193.761 1239.29 194.142 1239 194.429C1238.7 194.716 1238.32 194.889 1237.91 194.917H1201.7C1201.46 194.928 1201.22 194.89 1201 194.806C1200.78 194.722 1200.58 194.594 1200.41 194.429C1200.26 194.294 1200.14 194.129 1200.05 193.945C1199.96 193.76 1199.92 193.56 1199.91 193.358V56.0484Z" fill="#FEFEFE"/>
<path d="M1819.99 55.43V58.3511C1820.08 65.5734 1818.69 72.74 1815.9 79.4229C1813.12 86.1058 1808.99 92.1679 1803.76 97.247C1809 102.313 1813.15 108.373 1815.94 115.06C1818.73 121.746 1820.1 128.92 1819.99 136.146V138.867C1819.99 146.172 1818.53 153.406 1815.68 160.156C1812.84 166.906 1808.67 173.039 1803.42 178.204C1798.16 183.37 1791.92 187.467 1785.05 190.262C1778.19 193.057 1770.83 194.494 1763.39 194.492H1539.01C1538.76 194.499 1538.52 194.45 1538.29 194.349C1538.07 194.247 1537.87 194.096 1537.72 193.908C1537.42 193.59 1537.24 193.175 1537.22 192.739V162.8C1537.22 162.559 1537.27 162.32 1537.37 162.101C1537.47 161.882 1537.62 161.69 1537.81 161.538C1538.14 161.241 1538.56 161.068 1539.01 161.048H1763.41C1765.65 161.063 1767.87 160.642 1769.94 159.807C1772.01 158.973 1773.89 157.742 1775.48 156.186C1777.06 154.63 1778.31 152.78 1779.16 150.744C1780.01 148.708 1780.44 146.526 1780.43 144.325V130.514C1780.45 128.326 1780.03 126.156 1779.17 124.134C1778.32 122.112 1777.06 120.281 1775.47 118.75C1773.92 117.146 1772.05 115.877 1769.97 115.023C1767.89 114.169 1765.66 113.749 1763.41 113.789H1567.3C1567.06 113.798 1566.83 113.76 1566.6 113.677C1566.38 113.593 1566.18 113.467 1566.01 113.305C1565.86 113.168 1565.74 113.002 1565.66 112.818C1565.57 112.634 1565.53 112.435 1565.52 112.233V82.0873C1565.53 81.8853 1565.57 81.6863 1565.66 81.5022C1565.74 81.3181 1565.86 81.1526 1566.01 81.0156C1566.18 80.8542 1566.38 80.7281 1566.6 80.6449C1566.83 80.5618 1567.06 80.5232 1567.3 80.5316H1763.41C1765.65 80.5462 1767.87 80.1235 1769.94 79.288C1772.01 78.4525 1773.89 77.2208 1775.48 75.6644C1777.06 74.1081 1778.31 72.2581 1779.16 70.2219C1780.01 68.1856 1780.44 66.0037 1780.43 63.8028V49.9951C1780.44 47.7943 1780.01 45.6125 1779.16 43.5764C1778.31 41.5404 1777.06 39.6906 1775.48 38.1346C1773.89 36.5785 1772.01 35.3471 1769.94 34.512C1767.87 33.6768 1765.65 33.2545 1763.41 33.2696H1539.01C1538.56 33.2525 1538.14 33.0795 1537.81 32.7822C1537.62 32.6316 1537.47 32.4391 1537.37 32.22C1537.26 32.0009 1537.21 31.7613 1537.22 31.5203V1.55465C1537.23 1.34413 1537.29 1.13847 1537.39 0.953348C1537.49 0.768226 1537.64 0.608521 1537.81 0.486353C1538.14 0.190986 1538.56 0.0193783 1539.01 0.0022684H1763.41C1770.83 -0.0223311 1778.18 1.39282 1785.05 4.1666C1791.91 6.94039 1798.15 11.0182 1803.41 16.1665C1808.66 21.3147 1812.84 27.4321 1815.68 34.168C1818.53 40.9039 1820 48.1259 1820 55.42" fill="#FEFEFE"/>
</svg>
